<svg width="116" height="33" viewBox="0 0 116 33" fill="none" xmlns="http://www.w3.org/2000/svg">
<rect width="31.5143" height="31.9812" transform="translate(0 0.509422)" fill="white"/>
<path d="M12.0245 17.8627C12.0567 18.1135 12.2615 18.2159 12.4812 18.0894L23.2853 11.8515C23.5051 11.7249 23.5189 11.496 23.3176 11.343L19.8328 8.69342C19.6314 8.54041 19.2874 8.51855 19.0677 8.6451L11.8116 12.834C11.5919 12.9605 11.4389 13.27 11.4711 13.5208L12.0245 17.8627Z" fill="black"/>
<path d="M12.0245 17.8627C12.0567 18.1135 12.2615 18.2159 12.4812 18.0894L23.2853 11.8515C23.5051 11.7249 23.5189 11.496 23.3176 11.343L19.8328 8.69342C19.6314 8.54041 19.2874 8.51855 19.0677 8.6451L11.8116 12.834C11.5919 12.9605 11.4389 13.27 11.4711 13.5208L12.0245 17.8627Z" stroke="black" stroke-width="0.115048" stroke-miterlimit="10"/>
<path d="M8.195 21.657C7.99367 21.504 8.00747 21.2751 8.22722 21.1485L19.0314 14.9106C19.2511 14.7841 19.4559 14.8865 19.4881 15.1373L20.0403 19.4792C20.0725 19.73 19.9195 20.0395 19.6998 20.166L12.4437 24.3549C12.224 24.4815 11.88 24.4596 11.6787 24.3066L8.195 21.657Z" fill="black"/>
<path d="M8.195 21.657C7.99367 21.504 8.00747 21.2751 8.22722 21.1485L19.0314 14.9106C19.2511 14.7841 19.4559 14.8865 19.4881 15.1373L20.0403 19.4792C20.0725 19.73 19.9195 20.0395 19.6998 20.166L12.4437 24.3549C12.224 24.4815 11.88 24.4596 11.6787 24.3066L8.195 21.657Z" stroke="black" stroke-width="0.115048" stroke-miterlimit="10"/>
<path d="M40.8597 12.92C41.6277 12.92 42.3057 13.076 42.8937 13.388C43.4937 13.688 43.9617 14.066 44.2977 14.522V13.082H46.3677V23.162C46.3677 24.074 46.1757 24.884 45.7917 25.592C45.4077 26.312 44.8497 26.876 44.1177 27.284C43.3977 27.692 42.5337 27.896 41.5257 27.896C40.1817 27.896 39.0657 27.578 38.1777 26.942C37.2897 26.318 36.7857 25.466 36.6657 24.386H38.6997C38.8557 24.902 39.1857 25.316 39.6897 25.628C40.2057 25.952 40.8177 26.114 41.5257 26.114C42.3537 26.114 43.0197 25.862 43.5237 25.358C44.0397 24.854 44.2977 24.122 44.2977 23.162V21.506C43.9497 21.974 43.4757 22.37 42.8757 22.694C42.2877 23.006 41.6157 23.162 40.8597 23.162C39.9957 23.162 39.2037 22.946 38.4837 22.514C37.7757 22.07 37.2117 21.458 36.7917 20.678C36.3837 19.886 36.1797 18.992 36.1797 17.996C36.1797 17 36.3837 16.118 36.7917 15.35C37.2117 14.582 37.7757 13.988 38.4837 13.568C39.2037 13.136 39.9957 12.92 40.8597 12.92ZM44.2977 18.032C44.2977 17.348 44.1537 16.754 43.8657 16.25C43.5897 15.746 43.2237 15.362 42.7677 15.098C42.3117 14.834 41.8197 14.702 41.2917 14.702C40.7637 14.702 40.2717 14.834 39.8157 15.098C39.3597 15.35 38.9877 15.728 38.6997 16.232C38.4237 16.724 38.2857 17.312 38.2857 17.996C38.2857 18.68 38.4237 19.28 38.6997 19.796C38.9877 20.312 39.3597 20.708 39.8157 20.984C40.2837 21.248 40.7757 21.38 41.2917 21.38C41.8197 21.38 42.3117 21.248 42.7677 20.984C43.2237 20.72 43.5897 20.336 43.8657 19.832C44.1537 19.316 44.2977 18.716 44.2977 18.032ZM58.1529 17.798C58.1529 18.17 58.1289 18.506 58.0809 18.806H50.5029C50.5629 19.598 50.8569 20.234 51.3849 20.714C51.9129 21.194 52.5609 21.434 53.3289 21.434C54.4329 21.434 55.2129 20.972 55.6689 20.048H57.8829C57.5829 20.96 57.0369 21.71 56.2449 22.298C55.4649 22.874 54.4929 23.162 53.3289 23.162C52.3809 23.162 51.5289 22.952 50.7729 22.532C50.0289 22.1 49.4409 21.5 49.0089 20.732C48.5889 19.952 48.3789 19.052 48.3789 18.032C48.3789 17.012 48.5829 16.118 48.9909 15.35C49.4109 14.57 49.9929 13.97 50.7369 13.55C51.4929 13.13 52.3569 12.92 53.3289 12.92C54.2649 12.92 55.0989 13.124 55.8309 13.532C56.5629 13.94 57.1329 14.516 57.5409 15.26C57.9489 15.992 58.1529 16.838 58.1529 17.798ZM56.0109 17.15C55.9989 16.394 55.7289 15.788 55.2009 15.332C54.6729 14.876 54.0189 14.648 53.2389 14.648C52.5309 14.648 51.9249 14.876 51.4209 15.332C50.9169 15.776 50.6169 16.382 50.5209 17.15H56.0109ZM62.5663 14.756V20.246C62.5663 20.618 62.6503 20.888 62.8183 21.056C62.9983 21.212 63.2983 21.29 63.7183 21.29H64.9783V23H63.3583C62.4343 23 61.7263 22.784 61.2343 22.352C60.7423 21.92 60.4963 21.218 60.4963 20.246V14.756H59.3263V13.082H60.4963V10.616H62.5663V13.082H64.9783V14.756H62.5663ZM68.9215 9.68V23H66.8695V9.68H68.9215ZM76.6196 12.92C77.3996 12.92 78.0956 13.082 78.7076 13.406C79.3316 13.73 79.8176 14.21 80.1656 14.846C80.5136 15.482 80.6876 16.25 80.6876 17.15V23H78.6536V17.456C78.6536 16.568 78.4316 15.89 77.9876 15.422C77.5436 14.942 76.9376 14.702 76.1696 14.702C75.4016 14.702 74.7896 14.942 74.3336 15.422C73.8896 15.89 73.6676 16.568 73.6676 17.456V23H71.6156V13.082H73.6676V14.216C74.0036 13.808 74.4296 13.49 74.9456 13.262C75.4736 13.034 76.0316 12.92 76.6196 12.92ZM87.2291 18.05L91.8011 23H89.0291L85.3571 18.734V23H83.3051V9.68H85.3571V17.42L88.9571 13.082H91.8011L87.2291 18.05ZM102.362 17.798C102.362 18.17 102.338 18.506 102.29 18.806H94.7119C94.7719 19.598 95.0659 20.234 95.5939 20.714C96.1219 21.194 96.7699 21.434 97.5379 21.434C98.6419 21.434 99.4219 20.972 99.8779 20.048H102.092C101.792 20.96 101.246 21.71 100.454 22.298C99.6739 22.874 98.7019 23.162 97.5379 23.162C96.5899 23.162 95.7379 22.952 94.9819 22.532C94.2379 22.1 93.6499 21.5 93.2179 20.732C92.7979 19.952 92.5879 19.052 92.5879 18.032C92.5879 17.012 92.7919 16.118 93.1999 15.35C93.6199 14.57 94.2019 13.97 94.9459 13.55C95.7019 13.13 96.5659 12.92 97.5379 12.92C98.4739 12.92 99.3079 13.124 100.04 13.532C100.772 13.94 101.342 14.516 101.75 15.26C102.158 15.992 102.362 16.838 102.362 17.798ZM100.22 17.15C100.208 16.394 99.9379 15.788 99.4099 15.332C98.8819 14.876 98.2279 14.648 97.4479 14.648C96.7399 14.648 96.1339 14.876 95.6299 15.332C95.1259 15.776 94.8259 16.382 94.7299 17.15H100.22ZM103.697 17.996C103.697 17 103.901 16.118 104.309 15.35C104.729 14.582 105.293 13.988 106.001 13.568C106.721 13.136 107.519 12.92 108.395 12.92C109.043 12.92 109.679 13.064 110.303 13.352C110.939 13.628 111.443 14 111.815 14.468V9.68H113.885V23H111.815V21.506C111.479 21.986 111.011 22.382 110.411 22.694C109.823 23.006 109.145 23.162 108.377 23.162C107.513 23.162 106.721 22.946 106.001 22.514C105.293 22.07 104.729 21.458 104.309 20.678C103.901 19.886 103.697 18.992 103.697 17.996ZM111.815 18.032C111.815 17.348 111.671 16.754 111.383 16.25C111.107 15.746 110.741 15.362 110.285 15.098C109.829 14.834 109.337 14.702 108.809 14.702C108.281 14.702 107.789 14.834 107.333 15.098C106.877 15.35 106.505 15.728 106.217 16.232C105.941 16.724 105.803 17.312 105.803 17.996C105.803 18.68 105.941 19.28 106.217 19.796C106.505 20.312 106.877 20.708 107.333 20.984C107.801 21.248 108.293 21.38 108.809 21.38C109.337 21.38 109.829 21.248 110.285 20.984C110.741 20.72 111.107 20.336 111.383 19.832C111.671 19.316 111.815 18.716 111.815 18.032Z" fill="black"/>
</svg>
