<?xml version="1.0" standalone="no"?>
<!DOCTYPE svg PUBLIC "-//W3C//DTD SVG 20010904//EN"
 "http://www.w3.org/TR/2001/REC-SVG-20010904/DTD/svg10.dtd">
<svg version="1.0" xmlns="http://www.w3.org/2000/svg"
 width="556.000000pt" height="556.000000pt" viewBox="0 0 556.000000 556.000000"
 preserveAspectRatio="xMidYMid meet">
<metadata>
Created by potrace 1.14, written by Peter Selinger 2001-2017
</metadata>
<g transform="translate(0.000000,556.000000) scale(0.100000,-0.100000)"
fill="#000000" stroke="none">
<path d="M3345 4153 c-123 -66 -1265 -730 -1283 -746 -47 -44 -47 -62 7 -485
28 -215 55 -401 61 -412 14 -26 52 -35 82 -19 129 68 1896 1095 1906 1107 20
27 14 57 -20 88 -39 36 -568 438 -613 465 -37 23 -100 24 -140 2z"/>
<path d="M3310 3048 c-242 -138 -1813 -1045 -1842 -1064 -30 -19 -38 -31 -38
-53 0 -16 7 -37 16 -45 8 -9 155 -122 327 -253 298 -227 313 -237 362 -241 50
-3 50 -3 695 368 374 216 656 384 671 402 15 16 29 42 32 58 4 15 -16 203 -43
416 -28 214 -50 392 -50 396 0 15 -40 48 -57 48 -10 0 -43 -14 -73 -32z"/>
</g>
</svg>
